<svg xmlns="http://www.w3.org/2000/svg" viewBox="0 0 213.67 214.08"><defs><style>.cls-1,.cls-3{fill:#fff;}.cls-2{fill:#b3b3b3;}.cls-3,.cls-4{stroke:#b3b3b3;stroke-linejoin:round;}.cls-3{stroke-linecap:round;stroke-width:2px;}.cls-4,.cls-5,.cls-6{fill:none;}.cls-6{stroke:#fff;stroke-miterlimit:10;}</style></defs><g id="Layer_2" data-name="Layer 2"><g id="Layer_1-2" data-name="Layer 1"><polygon class="cls-1" points="107.11 0.6 120.53 0.6 120.64 73.31 193.25 0.6 212.33 0.6 107.11 105.85 107.11 0.6"/><path class="cls-1" d="M211.12,1.1,107.61,104.65V1.1H120l.11,71v2.41l1.7-1.71L193.46,1.1h17.66m2.42-1H193l-71.9,72L121,.1H106.61v107L213.54.1Z"/><path class="cls-2" d="M213.54.1l-66.6,66.61v37.78a1.4,1.4,0,0,0,2.29,1.17l12.21-12.22q0-10.35,0-20.7l52.12-52.12Z"/><path class="cls-2" d="M199,55.88l13.06-13a.82.82,0,0,1,1.47.65V82.42L106.61,189.35V168.8L199,76.4Z"/><path class="cls-2" d="M106.61,210.83,213.54,103.9a119.6,119.6,0,0,1-.41,12.09c-.3,3.54-.74,6.84-1.25,9.9q-43.21,43.2-86.41,86.41c-3,.54-6.4,1-10,1.3-3.14.25-6.11.36-8.85.36Z"/><path class="cls-3" d="M148.51,104.83c21.16-20.62,42.82-40.89,64-61.51"/><path class="cls-2" d="M198.28,161.13a107.07,107.07,0,0,1-31.17,33.47c-2.14,1.48-4.36,2.89-6.61,4.22Z"/><path class="cls-2" d="M195.59,164.51c-1.73,2.67-3.57,5.27-5.53,7.76a107.29,107.29,0,0,1-10,11.09,106.12,106.12,0,0,1-13.22,10.82c-1,.67-2,1.33-3,2l17.29-17.25,14.42-14.39m4.95-6.35-43,42.91a105.41,105.41,0,0,0,9.86-6.06,107.69,107.69,0,0,0,13.35-10.93,106.21,106.21,0,0,0,10.11-11.19,108.15,108.15,0,0,0,9.69-14.73Z"/><path class="cls-4" d="M213,81.91q.06,11.48.1,23a104.84,104.84,0,0,1-6.45,39,110.36,110.36,0,0,1-50.61,57.77,105.1,105.1,0,0,1-49.46,11.84"/><path class="cls-1" d="M68.47,129.33A53.06,53.06,0,0,1,52,126.58c-4-1.32-8.24-3.52-16-7.5-5.43-2.81-8.38-4.48-10.33-5.58a19.15,19.15,0,0,0-5.45-2.45,37.46,37.46,0,0,0-9.7-1.24,37.12,37.12,0,0,0-10,1.35c0-1,0-1.91,0-2.88,0-1.76,0-3.53.13-5.27a46.56,46.56,0,0,1,21.71.58A50.21,50.21,0,0,1,38,110.92a59,59,0,0,0,15.81,7.91A55,55,0,0,0,63.23,121a47.11,47.11,0,0,0,6.12.51h.54a27.91,27.91,0,0,0,6.48-1,36.61,36.61,0,0,0,6.8-1.9,37.29,37.29,0,0,0,6.22-3.12l5.12-3.23a2.32,2.32,0,0,1,.87-.19h0a2.86,2.86,0,0,1,.53,0v8.23A44.59,44.59,0,0,1,85,126.45a42.69,42.69,0,0,1-15.54,2.87Z"/><path class="cls-1" d="M10.29,102.5a45.86,45.86,0,0,1,11.92,1.58,49.4,49.4,0,0,1,15.49,7.25,59.55,59.55,0,0,0,15.94,8,56,56,0,0,0,9.52,2.16,48.1,48.1,0,0,0,6.19.51h.57a28.5,28.5,0,0,0,6.54-1,37.5,37.5,0,0,0,13.2-5.1l5.06-3.19a1.77,1.77,0,0,1,.68-.15h0V120a43.7,43.7,0,0,1-10.57,6,42.27,42.27,0,0,1-15.37,2.84h-1a52.33,52.33,0,0,1-16.29-2.73c-3.93-1.3-8.18-3.49-15.9-7.47-5.42-2.8-8.36-4.46-10.31-5.57a19.51,19.51,0,0,0-5.57-2.49,37.74,37.74,0,0,0-9.83-1.26A37.87,37.87,0,0,0,1,110.51c0-.74,0-1.48,0-2.23,0-1.62,0-3.25.11-4.86a46.4,46.4,0,0,1,9.18-.92m0-1A47.37,47.37,0,0,0,.15,102.6c-.1,1.88-.15,3.78-.15,5.68q0,1.78.06,3.54a36.63,36.63,0,0,1,10.51-1.51,37.07,37.07,0,0,1,9.57,1.22c3.65,1,3.05,1.46,15.68,8,8,4.13,12.11,6.23,16,7.53a53.37,53.37,0,0,0,16.6,2.78h1a43.1,43.1,0,0,0,15.71-2.91,45,45,0,0,0,11.21-6.41v-8.85a3.07,3.07,0,0,0-1-.16h-.1a2.81,2.81,0,0,0-1.11.26L89.12,115A36.81,36.81,0,0,1,83,118.06,36,36,0,0,1,76.24,120a27.33,27.33,0,0,1-6.37,1h-.52a45.84,45.84,0,0,1-6-.5A54.87,54.87,0,0,1,54,118.36a58.87,58.87,0,0,1-15.68-7.85,50.81,50.81,0,0,0-15.8-7.4,46.91,46.91,0,0,0-12.18-1.61Z"/><path class="cls-1" d="M10.58,90.55a35.5,35.5,0,0,1,9.29,1.19A17.67,17.67,0,0,1,25,94c2,1.11,4.93,2.79,10.41,5.62,8.38,4.32,12.25,6.29,16.19,7.6a54.72,54.72,0,0,0,17,2.83h1a44.27,44.27,0,0,0,16.06-3,45.37,45.37,0,0,0,9.84-5.36v8.76h-.1a4.14,4.14,0,0,0-1.75.46l-.07,0-.06.05a50.31,50.31,0,0,1-4.51,3,47.59,47.59,0,0,1-6.32,3.1A38.55,38.55,0,0,1,70,120h-.09a54,54,0,0,1-15.64-2.56,57.69,57.69,0,0,1-15.41-7.72,51.22,51.22,0,0,0-16.12-7.55,48.06,48.06,0,0,0-21.5-.78c.21-3.25.58-6.56,1.11-9.86a35.81,35.81,0,0,1,8.25-1m0-1a37,37,0,0,0-9.13,1.13A106.23,106.23,0,0,0,.15,102.6a47.06,47.06,0,0,1,22.32.51,50.81,50.81,0,0,1,15.8,7.4A58.87,58.87,0,0,0,54,118.36,54.67,54.67,0,0,0,69.87,121H70a39.07,39.07,0,0,0,13-2.91,47.58,47.58,0,0,0,6.46-3.17,51.21,51.21,0,0,0,4.61-3,3,3,0,0,1,1.31-.35h.09a3.2,3.2,0,0,1,1,.16V99.74a45,45,0,0,1-11.21,6.42,43.1,43.1,0,0,1-15.71,2.91h-1a53.68,53.68,0,0,1-16.63-2.78c-3.94-1.3-8-3.4-16-7.54-12.63-6.52-12-7-15.68-8a37,37,0,0,0-9.56-1.22Z"/><path class="cls-1" d="M69,150.46a52.88,52.88,0,0,1-16.45-2.76c-4-1.3-8.23-3.51-16-7.5-5.45-2.82-8.4-4.49-10.36-5.59a19,19,0,0,0-5.42-2.44,37.82,37.82,0,0,0-9.69-1.23,37.37,37.37,0,0,0-7.95.84c-.57-2.5-1.06-5.11-1.46-7.75a46.54,46.54,0,0,1,21.17.69,50.19,50.19,0,0,1,15.65,7.33A58.83,58.83,0,0,0,54.29,140a47.94,47.94,0,0,0,7.78,1.9,43.6,43.6,0,0,0,6.53.49h0c.7,0,1.28,0,1.71,0a43.35,43.35,0,0,0,24.48-9,2.35,2.35,0,0,1,.86-.24h.28v8.66a44.67,44.67,0,0,1-10.39,5.81A42.58,42.58,0,0,1,70,150.45Z"/><path class="cls-1" d="M10.78,123.63A46.28,46.28,0,0,1,22.7,125.2a49.63,49.63,0,0,1,15.49,7.26,59.42,59.42,0,0,0,16,8A48.84,48.84,0,0,0,62,142.35a44.66,44.66,0,0,0,6.61.49c.59,0,1.16,0,1.74,0a43.67,43.67,0,0,0,24.68-9,1.56,1.56,0,0,1,.41-.15v7.86a44.49,44.49,0,0,1-10.08,5.6A42.2,42.2,0,0,1,70,150H69a52.28,52.28,0,0,1-16.29-2.73c-3.93-1.3-8.19-3.49-15.91-7.48-5.44-2.81-8.39-4.47-10.34-5.58a19.24,19.24,0,0,0-5.54-2.48,38.24,38.24,0,0,0-9.82-1.25,38,38,0,0,0-7.57.75c-.49-2.19-.92-4.46-1.27-6.76a46.35,46.35,0,0,1,8.55-.8m0-1a47.46,47.46,0,0,0-9.68,1c.43,3,1,5.87,1.64,8.74a37.18,37.18,0,0,1,8.33-.93,37.21,37.21,0,0,1,9.56,1.21c3.66,1,3.05,1.47,15.68,8,8,4.14,12.11,6.24,16,7.54A53.46,53.46,0,0,0,69,151h1A43.17,43.17,0,0,0,85.72,148a45.18,45.18,0,0,0,10.71-6v-9.35a3,3,0,0,0-.58-.06h-.24a3.09,3.09,0,0,0-1.13.34,42.65,42.65,0,0,1-24.19,8.86c-.43,0-1,0-1.69,0a44,44,0,0,1-6.46-.48,49.22,49.22,0,0,1-7.7-1.88,58.8,58.8,0,0,1-15.67-7.84A51,51,0,0,0,23,124.24a46.85,46.85,0,0,0-12.18-1.61Z"/><path class="cls-1" d="M68.94,171.22a53.47,53.47,0,0,1-10.44-1.09c-2-.49-4-1-6-1.67l-.22-.06a63.79,63.79,0,0,1-8.54-3.2,49.23,49.23,0,0,1-5.29-3l-1.6-1c-7.62-4.64-11.44-7-16.09-8.32a32.71,32.71,0,0,0-9.14-1.26c-.6,0-1.21,0-1.85,0-1.15-2.55-2.18-5.12-3.08-7.64,1.36-.13,2.75-.19,4.12-.19.65,0,1.32,0,2,.05a48.53,48.53,0,0,1,10,1.55,51,51,0,0,1,8.61,2.75,48.32,48.32,0,0,1,8.83,4.91,43.61,43.61,0,0,0,14,7.58,44.2,44.2,0,0,0,6,1.45,39.37,39.37,0,0,0,8.87,1h1.14a40,40,0,0,0,24-9,3.84,3.84,0,0,1,1.29-.29h.3v8.63a45.08,45.08,0,0,1-10.39,5.82A42.58,42.58,0,0,1,70,171.21h-1Z"/><path class="cls-1" d="M10.81,144.38c.66,0,1.33,0,2,0A49.23,49.23,0,0,1,22.72,146a50.86,50.86,0,0,1,8.53,2.73A48.19,48.19,0,0,1,40,153.53a43.67,43.67,0,0,0,20.23,9.13,40,40,0,0,0,9,1h1.15a40.55,40.55,0,0,0,24.27-9.07,3.23,3.23,0,0,1,.84-.21v7.87a44.1,44.1,0,0,1-10.08,5.6A41.83,41.83,0,0,1,70,170.71h-1a51.74,51.74,0,0,1-10.29-1.08c-2-.48-4-1-6-1.65l-.22-.07A62,62,0,0,1,44,164.75a47.77,47.77,0,0,1-5.25-2.95l-1.6-1c-7.66-4.66-11.5-7-16.21-8.37a33.29,33.29,0,0,0-9.28-1.28l-1.53,0c-1-2.23-1.9-4.48-2.71-6.69,1.14-.09,2.29-.13,3.42-.13m0-1a47.22,47.22,0,0,0-4.79.25c1,2.93,2.18,5.8,3.44,8.6.75,0,1.48-.06,2.17-.06a32.13,32.13,0,0,1,9,1.24c4.58,1.34,8.38,3.65,16,8.26a67,67,0,0,0,6.94,4,62.91,62.91,0,0,0,8.82,3.29c2.45.77,4.53,1.31,6,1.68a53.18,53.18,0,0,0,10.53,1.1H70a43,43,0,0,0,15.72-2.92,45.18,45.18,0,0,0,10.71-6v-9.34a4.23,4.23,0,0,0-.66,0h-.16a4.19,4.19,0,0,0-1.53.36A39.8,39.8,0,0,1,83.47,160a39.36,39.36,0,0,1-13.18,2.72H69.17a38.78,38.78,0,0,1-8.79-1,42.27,42.27,0,0,1-5.94-1.43,43.13,43.13,0,0,1-13.88-7.51,47.88,47.88,0,0,0-8.91-5A51.84,51.84,0,0,0,23,145a49.29,49.29,0,0,0-10.12-1.56c-.69,0-1.37-.05-2-.05Z"/><path class="cls-1" d="M68.84,194.27a52.83,52.83,0,0,1-16.44-2.76c-3.84-1.27-7.68-3.22-16-7.51-4.13-2.12-6.75-3.56-8.37-4.46a107.1,107.1,0,0,1-9.38-11.91c1.32.23,2.67.53,4,.89a50.3,50.3,0,0,1,15.64,7.34,59.27,59.27,0,0,0,15.81,7.9,54.72,54.72,0,0,0,16.07,2.64h.15a37.08,37.08,0,0,0,13.16-2.94A41.05,41.05,0,0,0,94.4,177l.13-.11,0-.18a.71.71,0,0,1,.58-.59h0a.79.79,0,0,1,.77.5v8.89a44.69,44.69,0,0,1-10.52,5.91,42.55,42.55,0,0,1-15.55,2.88Z"/><path class="cls-1" d="M19.77,168.35c.92.18,1.86.4,2.81.65a49.42,49.42,0,0,1,15.48,7.27,59.87,59.87,0,0,0,15.95,8,55.35,55.35,0,0,0,16.22,2.66h.15a37.57,37.57,0,0,0,13.35-3,41.35,41.35,0,0,0,11-6.58l.27-.22.07-.35a.24.24,0,0,1,.18-.2.24.24,0,0,1,.19.12v8.53a44.2,44.2,0,0,1-10.2,5.7,42.25,42.25,0,0,1-15.38,2.84h-1A52.23,52.23,0,0,1,52.56,191c-3.81-1.26-7.63-3.2-15.91-7.48-4.07-2.09-6.66-3.51-8.28-4.42a105.13,105.13,0,0,1-8.6-10.79M17.62,167a106.08,106.08,0,0,0,10.12,13c1.89,1.05,4.54,2.49,8.45,4.51,8,4.14,12.11,6.24,16.05,7.54a53.37,53.37,0,0,0,16.6,2.78h1a43.11,43.11,0,0,0,15.72-2.91,44.94,44.94,0,0,0,10.84-6.13V176.5a1.26,1.26,0,0,0-1.19-.93h-.17a1.23,1.23,0,0,0-1,1A40.57,40.57,0,0,1,83.35,183a37.54,37.54,0,0,1-13,2.9h-.14a54.38,54.38,0,0,1-15.92-2.61,58.88,58.88,0,0,1-15.68-7.84A50.8,50.8,0,0,0,22.84,168,44.54,44.54,0,0,0,17.62,167Z"/><path class="cls-1" d="M68.54,108.58A53.92,53.92,0,0,1,52,105.82c-3.84-1.27-7.67-3.22-16-7.51-.26-.13-.52-.28-.8-.44-.54-.3-1.15-.65-2-1.05-.45-.21-.83-.38-1.19-.53a18.62,18.62,0,0,1-2.07-1,17.38,17.38,0,0,1-1.6-1c-2-1.38-7.49-3.81-14.21-4.69a35,35,0,0,0-4.58-.3A37.18,37.18,0,0,0,2.07,90c.23-1.34.49-2.69.77-4,.4-1.88.84-3.78,1.33-5.66,1.25-.09,2.53-.13,3.78-.13,1.63,0,3.28.07,4.9.21a49,49,0,0,1,10,1.76,47.6,47.6,0,0,1,8.77,3.53A47,47,0,0,1,36,88.32l.2.13a79.39,79.39,0,0,0,17.88,9A41.61,41.61,0,0,0,67.86,100l1,0a33.49,33.49,0,0,0,13.71-2.88c5.07-2.38,7.61-3.58,9-4.64a9.69,9.69,0,0,1,3.64-1.84,8.43,8.43,0,0,1,.9-.19l-.15,9a44.45,44.45,0,0,1-10.9,6.2A41.53,41.53,0,0,1,79,107.55a45.66,45.66,0,0,1-9.94,1Z"/><path class="cls-1" d="M8,80.73c1.62,0,3.25.07,4.86.21a46.7,46.7,0,0,1,18.56,5.23,49.8,49.8,0,0,1,4.33,2.57l.22.14a80,80,0,0,0,18,9.05,42.11,42.11,0,0,0,14,2.59l1,0a33.85,33.85,0,0,0,13.9-2.93c5.1-2.4,7.66-3.6,9.1-4.73a9.21,9.21,0,0,1,3.43-1.72l.26-.06-.14,8.08v.1a43.92,43.92,0,0,1-10.58,6,41.79,41.79,0,0,1-6,1.83,44.73,44.73,0,0,1-9.82,1h-.49a53.6,53.6,0,0,1-16.36-2.73c-3.8-1.26-7.62-3.2-15.9-7.48l-.79-.43c-.54-.31-1.16-.66-2-1.07-.45-.22-.84-.38-1.2-.54a17.72,17.72,0,0,1-2-1,15.48,15.48,0,0,1-1.56-1l-.07,0c-1.94-1.35-7.56-3.83-14.37-4.73a35.8,35.8,0,0,0-4.64-.3,37.75,37.75,0,0,0-6.91.65c.2-1.1.42-2.2.64-3.28.37-1.77.79-3.54,1.23-5.3,1.13-.07,2.27-.1,3.39-.1m0-1c-1.56,0-3,.06-4.18.15-.5,1.93-1,3.94-1.42,6-.34,1.63-.64,3.22-.9,4.76a37.12,37.12,0,0,1,8.15-.92,32.81,32.81,0,0,1,4.51.3c7,.9,12.33,3.44,13.92,4.55.2.14.81.58,1.71,1.1,1.26.72,2,.94,3.3,1.56s2,1.1,2.78,1.49c8,4.14,12.11,6.24,16,7.54a54.8,54.8,0,0,0,16.66,2.78H69a45.74,45.74,0,0,0,10-1,43.4,43.4,0,0,0,6.15-1.88,45,45,0,0,0,11.21-6.42l.17-9.85a9.69,9.69,0,0,0-1.53.26,10.35,10.35,0,0,0-3.83,1.93c-1.31,1-3.83,2.22-8.88,4.59a32.86,32.86,0,0,1-13.5,2.83l-1,0A41,41,0,0,1,54.21,97a82,82,0,0,1-17.77-9,49.34,49.34,0,0,0-4.61-2.74A48,48,0,0,0,23,81.72,48.9,48.9,0,0,0,12.9,79.94c-1.78-.15-3.44-.21-4.95-.21Z"/><path class="cls-1" d="M10.57,111.31a35.62,35.62,0,0,1,9.31,1.19,17.78,17.78,0,0,1,5.1,2.3c2,1.11,4.93,2.79,10.39,5.61,7.8,4,12.1,6.24,16.18,7.59a54.48,54.48,0,0,0,16.92,2.83h1.06a43.83,43.83,0,0,0,16.06-3,45.29,45.29,0,0,0,9.84-5.35v9.14a3.55,3.55,0,0,0-1.37.44l-.06,0-.06,0a47.39,47.39,0,0,1-4.52,3,46,46,0,0,1-6.32,3.1,38.46,38.46,0,0,1-12.62,2.84h-.1a53.45,53.45,0,0,1-15.63-2.57,57.65,57.65,0,0,1-15.41-7.71,51.73,51.73,0,0,0-16.12-7.55,48,48,0,0,0-21.28-.82c-.43-3.24-.72-6.56-.85-9.88a35.49,35.49,0,0,1,9.48-1.26m0-1A36.59,36.59,0,0,0,.06,111.82a106.62,106.62,0,0,0,1,11.81,47.46,47.46,0,0,1,9.68-1A46.85,46.85,0,0,1,23,124.24a51,51,0,0,1,15.81,7.4,58.8,58.8,0,0,0,15.67,7.84,54.45,54.45,0,0,0,15.93,2.62h.11a39,39,0,0,0,13-2.91A46.28,46.28,0,0,0,89.93,136a48.39,48.39,0,0,0,4.62-3.08,2.75,2.75,0,0,1,1.06-.33h.25a2.84,2.84,0,0,1,.57.06V120.5a45,45,0,0,1-11.21,6.41,43.1,43.1,0,0,1-15.71,2.91h-1a53.37,53.37,0,0,1-16.6-2.78c-3.94-1.3-8-3.4-16-7.53-12.63-6.53-12-7-15.68-8a37.07,37.07,0,0,0-9.57-1.22Z"/><path class="cls-1" d="M11.07,132.44a36.08,36.08,0,0,1,9.3,1.18,17.91,17.91,0,0,1,5.08,2.29c2,1.11,4.92,2.79,10.4,5.62,7.82,4,12.12,6.25,16.2,7.6A54.44,54.44,0,0,0,69,152h1a43.77,43.77,0,0,0,16.06-3,45.6,45.6,0,0,0,9.35-5v8.42a3.85,3.85,0,0,0-1.6.54l0,0,0,0a44.9,44.9,0,0,1-4.32,2.93A45.82,45.82,0,0,1,83.1,159a38.22,38.22,0,0,1-12.62,2.83h-.1a53,53,0,0,1-15.63-2.56,57.54,57.54,0,0,1-15.41-7.72A52.14,52.14,0,0,0,23.22,144a47.85,47.85,0,0,0-12.41-1.64c-1.36,0-2.74.06-4.11.18-1-3-2-6.21-2.75-9.42a36.5,36.5,0,0,1,7.12-.7m0-1a37.18,37.18,0,0,0-8.33.93A103.35,103.35,0,0,0,6,143.63a47.22,47.22,0,0,1,4.79-.25A46.64,46.64,0,0,1,23,145a51.22,51.22,0,0,1,15.81,7.4,58.79,58.79,0,0,0,15.67,7.85,54.05,54.05,0,0,0,15.93,2.61h.11a38.92,38.92,0,0,0,13-2.9,47.35,47.35,0,0,0,6.46-3.17,48.83,48.83,0,0,0,4.42-3,2.87,2.87,0,0,1,1.26-.42h.24a3,3,0,0,1,.58.06V142a45.18,45.18,0,0,1-10.71,6A43.17,43.17,0,0,1,70,151H69a53.42,53.42,0,0,1-16.61-2.78c-3.94-1.3-8-3.4-16-7.54-12.63-6.52-12-7-15.68-8a37.21,37.21,0,0,0-9.56-1.21Z"/><path class="cls-1" d="M11.09,153.2a35.8,35.8,0,0,1,9.27,1.18s.95.27,1.84.59c5.8,2.11,13.48,7.21,13.55,7.26a65.24,65.24,0,0,0,16.3,7.66A54.67,54.67,0,0,0,69,172.72h1a43.62,43.62,0,0,0,16.06-3,45.6,45.6,0,0,0,9.35-5v10.71a4.15,4.15,0,0,0-1.5.38l-.1.05-.09.07a44.66,44.66,0,0,1-4.44,3,45.74,45.74,0,0,1-6.32,3.1A38.37,38.37,0,0,1,70.4,184.9h-.15a53.11,53.11,0,0,1-15.63-2.57,57.47,57.47,0,0,1-15.41-7.7,51.64,51.64,0,0,0-16.11-7.56,46.3,46.3,0,0,0-4.88-1A104.37,104.37,0,0,1,11,153.2h.08m0-1-1.63,0A105.84,105.84,0,0,0,17.62,167h0A44.54,44.54,0,0,1,22.84,168a50.8,50.8,0,0,1,15.8,7.41,58.88,58.88,0,0,0,15.68,7.84,54.38,54.38,0,0,0,15.92,2.61h.16A38.77,38.77,0,0,0,83.35,183a46.67,46.67,0,0,0,6.46-3.17,44.42,44.42,0,0,0,4.55-3.11,3.17,3.17,0,0,1,1.18-.3h.17a3.42,3.42,0,0,1,.72.08V162.76a45.18,45.18,0,0,1-10.71,6A43,43,0,0,1,70,171.71H69a53.72,53.72,0,0,1-16.63-2.78,64.07,64.07,0,0,1-16-7.54s-7.8-5.2-13.77-7.37c-.95-.34-1.91-.62-1.91-.62a37.08,37.08,0,0,0-9.54-1.21Z"/><path class="cls-1" d="M85.64,212A104.13,104.13,0,0,1,68,206.94c.72,0,1.51,0,2.34-.06a36.55,36.55,0,0,0,11-2,80.75,80.75,0,0,0,8-4c2.21-1.18,4-2.17,5.24-2.86a2.26,2.26,0,0,1,1-.32h.34v8.55A44.27,44.27,0,0,1,85.64,212Z"/><path class="cls-1" d="M95.43,198.21V206a43.75,43.75,0,0,1-9.84,5.54,104.11,104.11,0,0,1-15-4.15,36.94,36.94,0,0,0,11-2,82.34,82.34,0,0,0,8-4c1.76-.94,3.53-1.9,5.28-2.88a1.78,1.78,0,0,1,.56-.21m.34-1h-.23a2.84,2.84,0,0,0-1.18.38c-1.23.69-3,1.68-5.24,2.86a82.06,82.06,0,0,1-7.93,4,36.33,36.33,0,0,1-10.9,2c-.86,0-1.67.06-2.41.06-1,0-1.94,0-2.68-.08a105.16,105.16,0,0,0,20.49,6.2,45.18,45.18,0,0,0,10.74-6.08v-9.23a2.83,2.83,0,0,0-.66-.08Z"/><path class="cls-1" d="M33,183.91l2.75,1.43c8.38,4.32,12.25,6.29,16.2,7.6a54.34,54.34,0,0,0,16.91,2.83h1a44.17,44.17,0,0,0,16.06-3,44.89,44.89,0,0,0,9.48-5.1v8.51a3.84,3.84,0,0,0-1.76.59l0,0,0,0a46,46,0,0,1-4.29,2.89,44,44,0,0,1-6.32,3.1,38.46,38.46,0,0,1-12.63,2.84h-.1a47.37,47.37,0,0,1-4.8-.28A105.8,105.8,0,0,1,33,183.91m-5.24-4a106,106,0,0,0,37.44,26.41h0a49.87,49.87,0,0,0,5,.3h.11a39,39,0,0,0,13-2.91,45.65,45.65,0,0,0,6.46-3.17,46.45,46.45,0,0,0,4.39-3,2.87,2.87,0,0,1,1.34-.45h.22a2.92,2.92,0,0,1,.67.08V185.72a44.94,44.94,0,0,1-10.84,6.13,43.11,43.11,0,0,1-15.72,2.91h-1A53.37,53.37,0,0,1,52.24,192c-3.94-1.3-8-3.4-16.05-7.54-3.91-2-6.56-3.46-8.45-4.51Z"/><path class="cls-1" d="M95.43,208.45V213c-2.12-.21-4.24-.49-6.33-.83a45.26,45.26,0,0,0,6.33-3.7m1-2a45.18,45.18,0,0,1-10.74,6.08,105.14,105.14,0,0,0,10.74,1.52v-7.6Z"/><path class="cls-5" d="M96.43,99.74v11.91a2.9,2.9,0,0,0-1.07-.16,3,3,0,0,0-1.31.35,51.21,51.21,0,0,1-4.61,3A48.18,48.18,0,0,1,83,118.06,38.71,38.71,0,0,1,69.87,121,54.67,54.67,0,0,1,54,118.36a58.87,58.87,0,0,1-15.68-7.85,50.81,50.81,0,0,0-15.8-7.4A47.08,47.08,0,0,0,.15,102.6a106.23,106.23,0,0,1,1.3-11.92,37.87,37.87,0,0,1,18.69.09c3.65,1,3.05,1.47,15.68,8,8,4.14,12.11,6.24,16,7.54a52.93,52.93,0,0,0,17.64,2.77,43.1,43.1,0,0,0,15.71-2.91A45,45,0,0,0,96.43,99.74Z"/><path class="cls-5" d="M85.69,212.56a45.18,45.18,0,0,0,10.74-6.08v7.6A105.14,105.14,0,0,1,85.69,212.56Z"/><path class="cls-6" d="M96.12.55V89.82a2.78,2.78,0,0,0-.75-.08,3.41,3.41,0,0,0-2.06.77A43.87,43.87,0,0,1,83,96.32a40.08,40.08,0,0,1-13.11,2.9A54.07,54.07,0,0,1,54,96.6a58.6,58.6,0,0,1-15.68-7.83,50.36,50.36,0,0,0-15.8-7.41A47.25,47.25,0,0,0,4.22,80.14,106.2,106.2,0,0,1,96.12.55Z"/><polygon class="cls-1" points="53.11 33.82 46.79 31.22 41.07 34.97 41.58 28.14 36.26 23.85 42.9 22.22 45.32 15.82 48.92 21.65 55.74 21.98 51.32 27.21 53.11 33.82"/><polygon class="cls-1" points="77.38 58.37 71.35 51.47 62.27 52.54 66.95 44.66 63.12 36.33 72.04 38.36 78.77 32.14 79.6 41.27 87.58 45.76 79.17 49.37 77.38 58.37"/><polygon class="cls-1" points="60.05 87.02 49.02 84.45 40.66 92.1 39.68 80.79 29.84 75.18 40.27 70.76 42.55 59.64 49.97 68.22 61.22 66.96 55.38 76.68 60.05 87.02"/></g></g></svg>