<?xml version="1.0" encoding="UTF-8"?>
<svg version="1.1" xmlns="http://www.w3.org/2000/svg" width="725" height="206">
<path d="M0 0 C7.54502672 -0.4527016 14.7459832 0.92470386 22 3 C24 5 24 5 24.23200989 7.14761353 C24.22352524 8.03943329 24.21504059 8.93125305 24.20629883 9.85009766 C24.20152023 10.86510345 24.19674164 11.88010925 24.19181824 12.9258728 C24.17621353 14.0357254 24.16060883 15.145578 24.14453125 16.2890625 C24.13581497 17.44556305 24.12709869 18.6020636 24.11811829 19.79360962 C24.09794567 22.2659713 24.07308862 24.73829836 24.04400635 27.21057129 C24.00112563 30.90307087 23.97206441 34.59542824 23.94677734 38.28808594 C23.90077543 44.41090466 23.82615528 50.53293197 23.73754883 56.65527344 C23.70384664 59.16008596 23.67596451 61.66498278 23.65356445 64.16992188 C23.61988422 67.87140331 23.56771477 71.5722343 23.51171875 75.2734375 C23.50532883 76.37674408 23.4989389 77.48005066 23.49235535 78.61679077 C23.26023976 91.0041221 20.76057069 102.31150784 12.40625 111.8125 C3.31275462 120.39126923 -8.10318066 121.1989625 -19.9375 121.25 C-21.67870117 121.2809375 -21.67870117 121.2809375 -23.45507812 121.3125 C-34.9999857 121.36389636 -47.28894524 119.80603838 -57 113 C-58.30211046 109.09366863 -57.47812346 106.80461827 -56.5625 102.8125 C-56.27503906 101.54019531 -55.98757812 100.26789063 -55.69140625 98.95703125 C-55.46324219 97.98121094 -55.23507813 97.00539063 -55 96 C-50.41717598 94.57803965 -47.79000525 95.54926779 -43.4375 97.375 C-33.48048924 101.49593624 -22.26115397 103.07093267 -11.69921875 100.05859375 C-8.13730734 98.3752608 -5.59929914 96.65378088 -2.9375 93.75 C-1.62743931 89.9071553 -1.03193035 86.06313749 -1 82 C-1.33 81.34 -1.66 80.68 -2 80 C-2.65226562 80.48210937 -3.30453125 80.96421875 -3.9765625 81.4609375 C-4.85054688 82.09257812 -5.72453125 82.72421875 -6.625 83.375 C-7.48351562 84.00148438 -8.34203125 84.62796875 -9.2265625 85.2734375 C-18.19435122 90.85620175 -30.20670674 90.18524672 -40.3359375 88.41796875 C-50.09367357 85.35644411 -57.53332192 77.81947468 -62.8203125 69.26171875 C-69.22807968 56.9766287 -69.36984086 43.24587492 -65.96875 30.03515625 C-62.62491363 19.55870118 -55.53673653 10.70185885 -46.15234375 4.97265625 C-40.14174595 2.25643329 -34.5427444 1.6601572 -28.0625 1.6875 C-27.30259766 1.67138672 -26.54269531 1.65527344 -25.75976562 1.63867188 C-17.40462045 1.63153682 -11.58530138 3.85575284 -5.5 9.6875 C-4.6440625 10.49574219 -3.788125 11.30398437 -2.90625 12.13671875 C-2.2771875 12.75160156 -1.648125 13.36648437 -1 14 C-1.01160156 13.32453125 -1.02320313 12.6490625 -1.03515625 11.953125 C-1.04417969 11.06109375 -1.05320312 10.1690625 -1.0625 9.25 C-1.07410156 8.36828125 -1.08570313 7.4865625 -1.09765625 6.578125 C-1.00826198 4.2181162 -0.66912821 2.25501476 0 0 Z M-38.74609375 28.01953125 C-44.04872613 35.28044993 -45.79307223 42.55055384 -44.6015625 51.4453125 C-42.82602963 58.9855625 -39.38200061 64.6548081 -33 69 C-27.77337815 72.181422 -21.89972037 71.77464089 -16 71 C-9.30725058 68.34244111 -4.86307126 63.52876083 -2 57 C0.99345329 48.68150921 0.49379294 40.69134335 -3.1875 32.6875 C-6.20930508 27.12423457 -10.06979197 23.42456293 -16 21 C-25.44840498 19.81270043 -32.40177042 20.68168972 -38.74609375 28.01953125 Z " fill="#EE3937" transform="translate(279,70)"/>
<path d="M0 0 C0 18.48 0 36.96 0 56 C4.29 52.7 8.58 49.4 13 46 C22.4178065 40.65475847 34.55364774 40.13126115 45.05078125 42.765625 C47.21444215 43.68199903 49.06140797 44.68010756 51 46 C51.928125 46.5775 52.85625 47.155 53.8125 47.75 C63.44165583 57.65427457 62.30354721 73.341498 62.23046875 86.19921875 C62.22927288 87.61074277 62.22882465 89.02226761 62.2290802 90.43379211 C62.227532 93.36078017 62.21936301 96.287643 62.20581055 99.21459961 C62.18864877 102.96830103 62.18500204 106.72186797 62.18575573 110.47560406 C62.1854845 113.37601507 62.18001367 116.27639663 62.17275429 119.17679787 C62.1695741 120.56231273 62.16760173 121.94783091 62.16686058 123.33334923 C62.16469995 125.25699442 62.15516704 127.18062713 62.14526367 129.10424805 C62.14145187 130.19754929 62.13764008 131.29085052 62.13371277 132.4172821 C62 135 62 135 61 137 C57.72933434 137.08706892 54.45896635 137.14041241 51.1875 137.1875 C50.25873047 137.21263672 49.32996094 137.23777344 48.37304688 137.26367188 C47.0340332 137.27817383 47.0340332 137.27817383 45.66796875 137.29296875 C44.43469849 137.31653442 44.43469849 137.31653442 43.17651367 137.34057617 C40.41533516 136.90851291 39.70497393 136.18497299 38 134 C37.64596558 131.82852173 37.64596558 131.82852173 37.67529297 129.27587891 C37.67874725 128.31702789 37.68220154 127.35817688 37.6857605 126.37026978 C37.70438141 125.33284637 37.72300232 124.29542297 37.7421875 123.2265625 C37.75211227 121.61447403 37.75211227 121.61447403 37.76223755 119.96981812 C37.78567549 116.52125711 37.82930443 113.07333197 37.875 109.625 C40.14187125 85.98599125 40.14187125 85.98599125 33 65 C28.27491838 62.09382077 23.37179098 62.29655118 18 63 C12.13998926 65.07748968 5.30638663 68.35197834 1.89393616 73.74946594 C0.76628804 76.58838286 0.72689406 78.89141034 0.69702148 81.94604492 C0.68037949 83.14376022 0.66373749 84.34147552 0.64659119 85.57548523 C0.63817703 86.86412979 0.62976288 88.15277435 0.62109375 89.48046875 C0.60491443 90.81758331 0.58773397 92.1546861 0.56959534 93.49177551 C0.52398212 97.00449193 0.48913211 100.51722407 0.45739746 104.03009033 C0.40544131 109.66350817 0.3405153 115.29675396 0.26918221 120.92995644 C0.24629809 122.90037395 0.23034891 124.87086801 0.21446228 126.84135437 C0.20097244 128.02961319 0.1874826 129.21787201 0.17358398 130.44213867 C0.16407211 131.4937468 0.15456024 132.54535492 0.14476013 133.62882996 C0 136 0 136 -1 137 C-4.30516934 137.25035974 -7.62396041 137.18521952 -10.9375 137.1875 C-11.87013672 137.19974609 -12.80277344 137.21199219 -13.76367188 137.22460938 C-14.65505859 137.22654297 -15.54644531 137.22847656 -16.46484375 137.23046875 C-17.285896 137.23457764 -18.10694824 137.23868652 -18.95288086 137.24291992 C-21 137 -21 137 -23 135 C-23.26501465 132.03433228 -23.26501465 132.03433228 -23.28710938 128.16259766 C-23.29398207 127.45484192 -23.30085476 126.74708618 -23.30793571 126.0178833 C-23.32887831 123.64992015 -23.33605565 121.28210273 -23.34375 118.9140625 C-23.35683378 117.24082605 -23.37098426 115.56759764 -23.38613892 113.89437866 C-23.41713071 110.32657529 -23.44289735 106.758791 -23.4644165 103.19091797 C-23.52130479 93.9317328 -23.61255031 84.67288888 -23.7109375 75.4140625 C-23.7205035 74.49416786 -23.7300695 73.57427322 -23.73992538 72.62650299 C-23.94108446 53.88934686 -24.55431098 35.18959522 -25.42773438 16.47119141 C-25.47296234 15.47552155 -25.51819031 14.47985168 -25.56478882 13.45401001 C-25.64909431 11.62674705 -25.73843811 9.79970641 -25.83389282 7.97299194 C-25.92778 5.98343892 -25.97002968 3.99154157 -26 2 C-24.07378631 0.07378631 -20.63192984 0.59921237 -18.0625 0.4375 C-16.16177734 0.31181641 -16.16177734 0.31181641 -14.22265625 0.18359375 C-9.48585088 -0.02235431 -4.74128039 0 0 0 Z " fill="#AC74B0" transform="translate(401,30)"/>
<path d="M0 0 C3.70994938 2.53313748 6.94658268 5.51909614 10.1484375 8.66015625 C11.97199098 10.71126949 11.97199098 10.71126949 14.1796875 10.48828125 C15.1696875 7.51828125 16.1596875 4.54828125 17.1796875 1.48828125 C23.81931115 1.1721087 29.04723086 1.84639703 35.1796875 4.48828125 C35.6746875 4.98328125 35.6746875 4.98328125 36.1796875 5.48828125 C36.13960987 7.28252592 36.01809248 9.07494464 35.8671875 10.86328125 C35.76921875 12.03503906 35.67125 13.20679687 35.5703125 14.4140625 C35.30088382 17.33214898 34.99075446 20.24404155 34.6640625 23.15625 C34.52931519 24.37078857 34.52931519 24.37078857 34.3918457 25.60986328 C34.21451789 27.18579525 34.0311909 28.7610691 33.84057617 30.33544922 C32.30146364 43.91858964 33.49696028 57.62955739 34.1796875 71.23828125 C34.27630865 73.20701817 34.37266495 75.1757681 34.46875 77.14453125 C34.70267616 81.92593679 34.94018515 86.70715192 35.1796875 91.48828125 C30.15587082 93.00778206 26.00257435 93.71347909 20.7421875 93.61328125 C19.50597656 93.59523438 18.26976562 93.5771875 16.99609375 93.55859375 C16.06667969 93.53539062 15.13726562 93.5121875 14.1796875 93.48828125 C13.1896875 89.52828125 12.1996875 85.56828125 11.1796875 81.48828125 C9.6328125 82.75671875 9.6328125 82.75671875 8.0546875 84.05078125 C-4.00403305 92.88400487 -13.9274068 96.45934813 -28.8203125 94.48828125 C-40.85641757 92.12171294 -49.34197245 84.16288024 -56.12890625 74.3046875 C-63.75662431 61.60356806 -65.0454427 45.97233014 -62.171875 31.53515625 C-58.9563233 20.15705023 -52.57392388 10.28345126 -42.8203125 3.48828125 C-30.59176626 -3.16524255 -13.07754249 -6.39915336 0 0 Z M-35.12109375 28.15234375 C-40.70789282 35.83258707 -40.85381585 44.17690819 -39.8203125 53.48828125 C-37.3425561 61.79151825 -31.97240772 67.91398222 -24.6953125 72.42578125 C-18.19986438 74.77176703 -9.77848834 74.76598995 -3.4453125 71.98828125 C3.80011484 67.601282 7.98454491 61.24444368 10.51953125 53.27734375 C12.54452318 44.72205239 11.1386426 37.30108644 7.1796875 29.48828125 C3.44627791 23.84563435 -1.15676534 19.24763364 -7.8203125 17.48828125 C-20.10543532 16.01037174 -27.31586306 18.67565895 -35.12109375 28.15234375 Z " fill="#EE3937" transform="translate(165.8203125,73.51171875)"/>
<path d="M0 0 C0.87736816 0.00612305 1.75473633 0.01224609 2.65869141 0.01855469 C9.12767232 0.17489741 14.42906223 1.08537174 20.0625 4.4375 C21.09375 5.015 22.125 5.5925 23.1875 6.1875 C32.55166031 13.51597329 40.44529648 23.19564543 42.0625 35.4375 C42.2767504 37.93256796 42.41740472 40.43461259 42.5 42.9375 C42.56058594 44.2265625 42.62117187 45.515625 42.68359375 46.84375 C42.02938144 50.62912943 41.20810175 52.24218305 38.05834961 54.48095703 C33.96386327 56.44330534 29.59683041 56.71002504 25.125 57.125 C23.55057129 57.2947937 23.55057129 57.2947937 21.94433594 57.46801758 C18.65229642 57.81497513 15.35833327 58.12886663 12.0625 58.4375 C9.97265388 58.64580954 7.88281007 58.85414226 5.79296875 59.0625 C-3.78910811 59.98284303 -13.30345219 60.81043088 -22.9375 60.4375 C-19.39098929 68.11023951 -15.25277371 72.77986314 -7.6640625 76.57421875 C0.91968312 79.29199494 11.4117293 78.14024584 19.59765625 74.73046875 C22.96719737 72.96292816 26.00176623 70.85971112 28.9921875 68.51171875 C31.0625 67.4375 31.0625 67.4375 33.64453125 67.47265625 C36.85263427 68.75278783 37.43253001 70.0919136 38.875 73.1875 C39.29394531 74.04859375 39.71289062 74.9096875 40.14453125 75.796875 C41.1361828 78.64945563 41.52978115 80.45075449 41.0625 83.4375 C34.95369655 91.22843773 24.71924965 96.62518757 15.0625 98.4375 C-1.53236232 99.84106098 -16.50513402 99.11584123 -29.9375 88.4375 C-30.55238281 87.95925781 -31.16726563 87.48101562 -31.80078125 86.98828125 C-41.4042523 78.53467148 -45.3121372 65.66739171 -46.1484375 53.32421875 C-46.61878991 38.21867012 -42.45165052 25.61514983 -32.625 14.125 C-23.36905358 4.35741835 -13.44428667 -0.16014328 0 0 Z M-19.75 29.75 C-22.97850754 34.33787913 -23.00191792 37.92332585 -22.9375 43.4375 C-9.32437592 43.82851527 3.68266912 43.11346618 17.0625 40.4375 C18.33358062 39.3655081 18.33358062 39.3655081 18.4375 36.875 C17.80300017 31.05875154 14.72864721 26.981734 10.5 23.0625 C-0.97828959 15.41030694 -11.68996377 19.58734562 -19.75 29.75 Z " fill="#AC74B0" transform="translate(613.9375,69.5625)"/>
<path d="M0 0 C0.87736816 0.00612305 1.75473633 0.01224609 2.65869141 0.01855469 C9.12767232 0.17489741 14.42906223 1.08537174 20.0625 4.4375 C21.09375 5.015 22.125 5.5925 23.1875 6.1875 C32.55166031 13.51597329 40.44529648 23.19564543 42.0625 35.4375 C42.2767504 37.93256796 42.41740472 40.43461259 42.5 42.9375 C42.56058594 44.2265625 42.62117187 45.515625 42.68359375 46.84375 C42.02938144 50.62912943 41.20810175 52.24218305 38.05834961 54.48095703 C33.96386327 56.44330534 29.59683041 56.71002504 25.125 57.125 C23.55057129 57.2947937 23.55057129 57.2947937 21.94433594 57.46801758 C18.65229642 57.81497513 15.35833327 58.12886663 12.0625 58.4375 C9.97265388 58.64580954 7.88281007 58.85414226 5.79296875 59.0625 C-3.78910811 59.98284303 -13.30345219 60.81043088 -22.9375 60.4375 C-19.39098929 68.11023951 -15.25277371 72.77986314 -7.6640625 76.57421875 C0.91968312 79.29199494 11.4117293 78.14024584 19.59765625 74.73046875 C22.96719737 72.96292816 26.00176623 70.85971112 28.9921875 68.51171875 C31.0625 67.4375 31.0625 67.4375 33.64453125 67.47265625 C36.85263427 68.75278783 37.43253001 70.0919136 38.875 73.1875 C39.29394531 74.04859375 39.71289062 74.9096875 40.14453125 75.796875 C41.1361828 78.64945563 41.52978115 80.45075449 41.0625 83.4375 C34.95369655 91.22843773 24.71924965 96.62518757 15.0625 98.4375 C-1.53236232 99.84106098 -16.50513402 99.11584123 -29.9375 88.4375 C-30.55238281 87.95925781 -31.16726563 87.48101562 -31.80078125 86.98828125 C-41.4042523 78.53467148 -45.3121372 65.66739171 -46.1484375 53.32421875 C-46.61878991 38.21867012 -42.45165052 25.61514983 -32.625 14.125 C-23.36905358 4.35741835 -13.44428667 -0.16014328 0 0 Z M-19.75 29.75 C-22.97850754 34.33787913 -23.00191792 37.92332585 -22.9375 43.4375 C-9.32437592 43.82851527 3.68266912 43.11346618 17.0625 40.4375 C18.33358062 39.3655081 18.33358062 39.3655081 18.4375 36.875 C17.80300017 31.05875154 14.72864721 26.981734 10.5 23.0625 C-0.97828959 15.41030694 -11.68996377 19.58734562 -19.75 29.75 Z " fill="#AC74B0" transform="translate(519.9375,69.5625)"/>
<path d="M0 0 C3.81248426 -0.02887236 7.6249407 -0.04675492 11.4375 -0.0625 C12.52611328 -0.07087891 13.61472656 -0.07925781 14.73632812 -0.08789062 C15.77080078 -0.09111328 16.80527344 -0.09433594 17.87109375 -0.09765625 C18.82943115 -0.10289307 19.78776855 -0.10812988 20.77514648 -0.11352539 C23 0 23 0 24 1 C24.06344741 3.11365091 24.05915049 5.22938625 24.02734375 7.34375 C24.00897461 9.30828125 24.00897461 9.30828125 23.99023438 11.3125 C23.96562123 13.39462626 23.93788026 15.47659608 23.90405273 17.55859375 C23.61597972 36.4670712 29.37509524 50.67762905 42 65 C44.10829495 66.29657613 44.10829495 66.29657613 46 67 C47.34513452 65.00720812 48.67541917 63.00641424 50 61 C50.36222656 60.46632812 50.72445312 59.93265625 51.09765625 59.3828125 C52.46811015 57.2922896 53.73436221 55.15588326 55 53 C55.68715088 51.87650146 56.37430176 50.75300293 57.08227539 49.59545898 C63.22820951 38.96514407 63.99609533 30.15394037 63.4375 18.0625 C63.36505377 15.61256572 63.30415067 13.16256108 63.24537659 10.71226501 C63.20492733 9.2050731 63.1541651 7.69811417 63.09190369 6.19166565 C63.02495619 4.46213454 63.00734469 2.73081076 63 1 C64 0 64 0 66.04125977 -0.11352539 C66.91580811 -0.10828857 67.79035645 -0.10305176 68.69140625 -0.09765625 C69.63564453 -0.09443359 70.57988281 -0.09121094 71.55273438 -0.08789062 C72.54595703 -0.07951172 73.53917969 -0.07113281 74.5625 -0.0625 C75.55958984 -0.05798828 76.55667969 -0.05347656 77.58398438 -0.04882812 C80.05604849 -0.03700007 82.52799518 -0.02051849 85 0 C88.64222128 7.28444255 87.21908517 18.15216871 87.25 26.0625 C87.27077012 27.39908953 87.29160307 28.73567808 87.3125 30.07226562 C87.32023437 32.00295898 87.32023437 32.00295898 87.328125 33.97265625 C87.3374707 35.13031494 87.34681641 36.28797363 87.35644531 37.48071289 C86.63480785 44.60564716 83.55515003 50.19461734 79.578125 56.02734375 C79.15505066 56.66056046 78.73197632 57.29377716 78.29608154 57.94618225 C77.40563011 59.27552302 76.51130869 60.60227905 75.61328125 61.92651367 C74.25934927 63.92370882 72.91778675 65.92875914 71.578125 67.93554688 C58.92399551 86.80989469 58.92399551 86.80989469 53 92 C50.02719191 92.42806075 47.52521124 92.60551118 44.5625 92.5625 C43.43618164 92.59827148 43.43618164 92.59827148 42.28710938 92.63476562 C38.19008643 92.62395554 36.49766255 92.40134076 33.21484375 89.75390625 C32.48394531 88.84511719 31.75304687 87.93632812 31 87 C30.34 86.26523438 29.68 85.53046875 29 84.7734375 C22.22337558 76.64678243 16.32319013 67.96773825 10.45361328 59.17333984 C9.20847449 57.31169632 7.94933049 55.46092665 6.68359375 53.61328125 C6.06613281 52.68902344 5.44867187 51.76476562 4.8125 50.8125 C4.30332031 50.05582031 3.79414063 49.29914063 3.26953125 48.51953125 C0.08114123 42.19180336 -0.28597493 35.84400463 -0.1953125 28.90625 C-0.1924826 28.07411987 -0.18965271 27.24198975 -0.18673706 26.38464355 C-0.17564286 23.75627569 -0.15055925 21.1282629 -0.125 18.5 C-0.11495626 16.70573413 -0.10583286 14.91146285 -0.09765625 13.1171875 C-0.07573893 8.74465721 -0.0412849 4.37238857 0 0 Z " fill="#EE3937" transform="translate(6,75)"/>
<path d="M0 0 C1.75570312 0.01353516 1.75570312 0.01353516 3.546875 0.02734375 C4.43890625 0.03894531 5.3309375 0.05054687 6.25 0.0625 C6.72985967 1.33307182 7.2088593 2.60396848 7.6875 3.875 C7.95433594 4.58269531 8.22117187 5.29039063 8.49609375 6.01953125 C10.05744735 10.25055681 10.41755058 13.53863441 10.25 18.0625 C7.80912353 20.50337647 1.97579058 20.05693619 -1.33203125 20.46484375 C-5.31249945 21.1451376 -5.31249945 21.1451376 -8.75 23.0625 C-9.56870185 26.62456661 -9.56870185 26.62456661 -9.75 30.0625 C-6.02437643 32.96848638 -2.308673 35.75206196 1.72265625 38.21875 C10.50670698 43.59465409 16.27901804 47.71484916 19.25 58.0625 C20.27294802 67.43555862 19.32026658 75.62270843 13.58984375 83.28125 C8.1483124 89.27028656 -0.53250813 94.72392011 -8.8347168 95.17602539 C-10.00514526 95.16817017 -10.00514526 95.16817017 -11.19921875 95.16015625 C-12.04677734 95.15693359 -12.89433594 95.15371094 -13.76757812 95.15039062 C-14.64865234 95.14201172 -15.52972656 95.13363281 -16.4375 95.125 C-17.33017578 95.12048828 -18.22285156 95.11597656 -19.14257812 95.11132812 C-21.34511987 95.09954983 -23.54752599 95.08310164 -25.75 95.0625 C-27.39334949 91.77580103 -27.17414822 88.11828582 -27.375 84.5 C-27.45234375 83.30987305 -27.45234375 83.30987305 -27.53125 82.09570312 C-27.64791295 80.08669842 -27.7038468 78.07435985 -27.75 76.0625 C-25.5096977 73.8221977 -19.45621875 74.70883344 -16.27148438 74.6328125 C-11.42769913 74.43116316 -7.9340207 73.75772806 -3.75 71.0625 C-2.01198265 68.26551296 -2.01198265 68.26551296 -1.75 65.0625 C-3.79252811 58.77779813 -10.91918473 55.66067799 -16.3515625 52.59375 C-23.58600113 48.48476371 -29.13470774 44.22645286 -31.75 36.0625 C-32.83557341 25.61070015 -31.22649547 18.60316466 -25.75 9.875 C-19.36664082 2.71123014 -9.19892082 -0.09198921 0 0 Z " fill="#AC74B0" transform="translate(345.75,71.9375)"/>
<path d="M0 0 C2 6.625 2 6.625 2 10 C3.44632813 9.15115234 3.44632813 9.15115234 4.921875 8.28515625 C6.19776699 7.54401311 7.47381699 6.80314193 8.75 6.0625 C9.38421875 5.68931641 10.0184375 5.31613281 10.671875 4.93164062 C16.77415841 1.40375803 21.2128507 0.83780187 28.1875 0.875 C28.92419922 0.87113281 29.66089844 0.86726563 30.41992188 0.86328125 C35.87331509 0.87331509 35.87331509 0.87331509 37 2 C37.35111063 9.03253945 37.20152241 16.05787052 36 23 C34.41012574 24.58987426 32.72160678 24.16469413 30.51953125 24.2109375 C29.60236328 24.23929688 28.68519531 24.26765625 27.74023438 24.296875 C25.8081234 24.34843233 23.87580712 24.39285391 21.94335938 24.4296875 C14.46872632 24.60341057 14.46872632 24.60341057 8 28 C4.39693108 34.94739542 4.54457033 42.45792963 4.5234375 50.09375 C4.50006821 51.93555847 4.50006821 51.93555847 4.47622681 53.8145752 C4.4289437 57.70971108 4.40100097 61.60466895 4.375 65.5 C4.3385355 69.42377203 4.29801402 73.34744246 4.25234985 77.27111816 C4.22506677 79.70717399 4.20374023 82.14330491 4.18881226 84.57946777 C4.17341904 86.2175238 4.17341904 86.2175238 4.15771484 87.88867188 C4.15121918 88.8541394 4.14472351 89.81960693 4.13803101 90.81433105 C4 93 4 93 3 94 C1.60825641 94.09862603 0.21163857 94.1307898 -1.18359375 94.1328125 C-2.02857422 94.13410156 -2.87355469 94.13539063 -3.74414062 94.13671875 C-4.63294922 94.13285156 -5.52175781 94.12898438 -6.4375 94.125 C-7.32244141 94.12886719 -8.20738281 94.13273437 -9.11914062 94.13671875 C-9.96541016 94.13542969 -10.81167969 94.13414062 -11.68359375 94.1328125 C-12.85233032 94.13112061 -12.85233032 94.13112061 -14.04467773 94.12939453 C-16 94 -16 94 -18 93 C-18.00586624 92.24261536 -18.01173248 91.48523071 -18.01777649 90.70489502 C-18.07634478 83.4705775 -18.14876863 76.23657966 -18.23571491 69.00255203 C-18.27992483 65.28590421 -18.31927979 61.56935372 -18.34643555 57.85253906 C-18.48155217 31.78119908 -18.48155217 31.78119908 -22.7199707 6.11035156 C-22.81238037 5.41393555 -22.90479004 4.71751953 -23 4 C-20.25824287 1.25824287 -18.12745025 1.38582224 -14.3125 0.875 C-13.11238281 0.70742187 -11.91226563 0.53984375 -10.67578125 0.3671875 C-7.08855293 0.00884588 -3.60223901 -0.06473857 0 0 Z " fill="#AC74B0" transform="translate(687,73)"/>
</svg>
