<svg xmlns="http://www.w3.org/2000/svg" viewBox="0 0 106.94 189.25"><defs><style>.cls-1{fill:#ee3937;}.cls-2{fill:#ac74b0;}.cls-3{fill:none;stroke:#ac74b0;stroke-miterlimit:10;stroke-width:2px;}</style></defs><g id="Layer_2" data-name="Layer 2"><g id="Layer_1-2" data-name="Layer 1"><polygon class="cls-1" points="0 0 14.42 0 14.53 72.01 86.44 0 106.93 0 0.01 106.96 0 0"/><path class="cls-2" d="M106.93,0,40.34,66.61v37.78a1.39,1.39,0,0,0,2.28,1.17L54.84,93.34q0-10.35,0-20.7l52.11-52.12Z"/><path class="cls-2" d="M92.4,55.78l13.06-13a.86.86,0,0,1,1.1-.21.85.85,0,0,1,.37.86V82.32Q53.47,135.8,0,189.25V168.7L92.4,76.3Z"/><path class="cls-3" d="M41.9,104.73c21.17-20.62,42.83-40.89,64-61.51"/></g></g></svg>