<svg xmlns="http://www.w3.org/2000/svg" viewBox="0 0 214.05 213.99"><defs><style>.cls-1{fill:#ee3937;}.cls-2{fill:#ac74b0;}.cls-3{fill:#fff;stroke-linecap:round;stroke-width:2px;}.cls-3,.cls-4{stroke:#ac74b0;stroke-linejoin:round;}.cls-4,.cls-5,.cls-6{fill:none;}.cls-6,.cls-7{stroke:#000;stroke-miterlimit:10;}</style></defs><g id="Layer_2" data-name="Layer 2"><g id="Layer_1-2" data-name="Layer 1"><polygon class="cls-1" points="106.99 0.07 121.41 0.07 121.52 72.08 193.43 0.07 213.92 0.07 107 107.03 106.99 0.07"/><path class="cls-2" d="M213.92.07,147.33,66.69v37.78a1.41,1.41,0,0,0,.83,1.37,1.39,1.39,0,0,0,1.45-.21l12.22-12.22q0-10.35,0-20.7L213.92,20.6Z"/><path class="cls-2" d="M199.39,55.85l13.06-13a.82.82,0,0,1,1.47.66V82.4L107,189.33V168.77l92.4-92.4Z"/><path class="cls-2" d="M107,210.8,213.92,103.87a116.5,116.5,0,0,1-.4,12.09c-.3,3.54-.74,6.85-1.25,9.9l-86.42,86.41c-3,.54-6.39,1-10,1.3-3.15.26-6.11.36-8.86.36Z"/><path class="cls-3" d="M148.9,104.8c21.16-20.62,42.82-40.89,64-61.51"/><path class="cls-2" d="M198.67,161.1a107.06,107.06,0,0,1-31.17,33.47c-2.15,1.48-4.36,2.9-6.61,4.22Z"/><path class="cls-2" d="M196,164.48c-1.73,2.67-3.58,5.27-5.53,7.76a105.86,105.86,0,0,1-23.24,21.92c-1,.67-1.94,1.32-2.94,2l15.86-15.82L196,164.48m5-6.34-43,42.91a109.36,109.36,0,0,0,9.86-6.07,107.5,107.5,0,0,0,33.15-36.84Z"/><path class="cls-4" d="M213.42,81.88q.06,11.49.1,23a104.91,104.91,0,0,1-6.45,39,110.29,110.29,0,0,1-50.61,57.76A104.88,104.88,0,0,1,107,213.48"/><path d="M68.51,129.24a53.11,53.11,0,0,1-16.45-2.75c-4-1.32-8.24-3.51-16-7.5-5.43-2.8-8.38-4.47-10.33-5.57A19.31,19.31,0,0,0,20.28,111a37.46,37.46,0,0,0-9.7-1.24,37.59,37.59,0,0,0-10,1.35c0-1,0-1.91,0-2.87,0-1.76,0-3.53.13-5.27a46.61,46.61,0,0,1,21.72.58A50,50,0,0,1,38,110.84a59.06,59.06,0,0,0,15.82,7.91,55.07,55.07,0,0,0,9.44,2.14,47.22,47.22,0,0,0,6.13.51h.54a28.54,28.54,0,0,0,6.48-1,36.86,36.86,0,0,0,6.8-1.91,36.49,36.49,0,0,0,6.22-3.11l5.13-3.23a2.48,2.48,0,0,1,.87-.19h0a2.21,2.21,0,0,1,.54,0v8.21a44.33,44.33,0,0,1-10.9,6.19,42.73,42.73,0,0,1-15.55,2.87Z"/><path d="M10.29,102.43A46.3,46.3,0,0,1,22.22,104a49.35,49.35,0,0,1,15.5,7.25,59.81,59.81,0,0,0,16,8,57,57,0,0,0,9.52,2.16,48.1,48.1,0,0,0,6.19.51l.57,0a28.58,28.58,0,0,0,6.55-1,37.23,37.23,0,0,0,13.2-5.09l2.56-1.61,2.51-1.58a1.93,1.93,0,0,1,.68-.15h0v7.52a44.05,44.05,0,0,1-10.58,6,42.28,42.28,0,0,1-15.38,2.84h-1A52.42,52.42,0,0,1,52.21,126c-3.93-1.3-8.19-3.49-15.91-7.46-5.42-2.8-8.37-4.47-10.32-5.57a19.27,19.27,0,0,0-5.57-2.49,37.74,37.74,0,0,0-9.83-1.26A37.9,37.9,0,0,0,1,110.44c0-.74,0-1.49,0-2.23,0-1.62,0-3.26.11-4.86a46.4,46.4,0,0,1,9.18-.92m0-1a47.37,47.37,0,0,0-10.14,1.1c-.1,1.88-.15,3.77-.15,5.68,0,1.18,0,2.36.06,3.53a36.7,36.7,0,0,1,10.52-1.51,36.37,36.37,0,0,1,9.57,1.23c3.66,1,3.05,1.45,15.7,8,8,4.13,12.11,6.22,16,7.52a53.46,53.46,0,0,0,16.61,2.78h1a43.25,43.25,0,0,0,15.73-2.91,45,45,0,0,0,11.21-6.4v-8.85a3.07,3.07,0,0,0-1-.16h-.1a2.79,2.79,0,0,0-1.11.27l-5.13,3.23A36.81,36.81,0,0,1,83,118a36.3,36.3,0,0,1-6.75,1.89,28.54,28.54,0,0,1-6.37,1h-.53a47.88,47.88,0,0,1-6-.5A55.28,55.28,0,0,1,54,118.27a58.43,58.43,0,0,1-15.68-7.84A50.62,50.62,0,0,0,22.48,103a46.93,46.93,0,0,0-12.19-1.61Z"/><path d="M10.59,90.49a36.23,36.23,0,0,1,9.3,1.18A17.7,17.7,0,0,1,25,94c2,1.11,4.93,2.78,10.42,5.61,8.38,4.32,12.25,6.29,16.2,7.59a54.72,54.72,0,0,0,17,2.83h1a44,44,0,0,0,16.07-3,45.44,45.44,0,0,0,9.85-5.36v8.75h-.1a4,4,0,0,0-1.75.47l-.07,0-.06,0A49.07,49.07,0,0,1,89,114a47,47,0,0,1-6.32,3.1A38.55,38.55,0,0,1,70,119.89h-.1a53.68,53.68,0,0,1-15.64-2.57,57.27,57.27,0,0,1-15.42-7.71,51.56,51.56,0,0,0-16.13-7.54,48.15,48.15,0,0,0-21.52-.78c.21-3.24.58-6.55,1.11-9.86a36.45,36.45,0,0,1,8.26-.94m0-1a37.05,37.05,0,0,0-9.14,1.13,105.8,105.8,0,0,0-1.3,11.91,47.1,47.1,0,0,1,22.33.51,50.62,50.62,0,0,1,15.82,7.39A58.43,58.43,0,0,0,54,118.27a54.51,54.51,0,0,0,15.94,2.62H70A39.15,39.15,0,0,0,83,118a48.81,48.81,0,0,0,6.46-3.17,51.21,51.21,0,0,0,4.61-3,3,3,0,0,1,1.31-.35h.09a3.2,3.2,0,0,1,1,.16V99.67a44.65,44.65,0,0,1-11.21,6.41A43,43,0,0,1,69.55,109h-1a53.73,53.73,0,0,1-16.64-2.78c-3.94-1.3-8-3.39-16-7.53-12.65-6.51-12-7-15.7-8a37,37,0,0,0-9.56-1.22Z"/><path d="M69,150.36a53,53,0,0,1-16.46-2.76c-4-1.31-8.24-3.51-16-7.5-5.45-2.81-8.41-4.48-10.36-5.59a19.34,19.34,0,0,0-5.42-2.43,38,38,0,0,0-9.7-1.23,37.54,37.54,0,0,0-8,.84c-.57-2.51-1.06-5.11-1.46-7.75a47.47,47.47,0,0,1,9.12-.9,47,47,0,0,1,12.07,1.59A50.35,50.35,0,0,1,38.51,132a59.18,59.18,0,0,0,15.82,7.9,47.33,47.33,0,0,0,7.78,1.89,43.6,43.6,0,0,0,6.53.49c.7,0,1.28,0,1.72,0a43.44,43.44,0,0,0,24.48-9,2.47,2.47,0,0,1,.87-.24H96v8.65a44.89,44.89,0,0,1-10.4,5.81A42.8,42.8,0,0,1,70,150.35Z"/><path d="M10.78,123.54a46,46,0,0,1,11.94,1.58,49.76,49.76,0,0,1,15.5,7.25,59.69,59.69,0,0,0,16,8A48.94,48.94,0,0,0,62,142.25a44.69,44.69,0,0,0,6.62.49c.58,0,1.15,0,1.73,0a43.84,43.84,0,0,0,24.7-9,1.56,1.56,0,0,1,.41-.15v7.85A44.49,44.49,0,0,1,85.41,147,42.53,42.53,0,0,1,70,149.85H69a52.64,52.64,0,0,1-16.3-2.73c-3.93-1.3-8.19-3.49-15.92-7.48-5.45-2.8-8.39-4.47-10.34-5.57a19.74,19.74,0,0,0-5.55-2.49,38.78,38.78,0,0,0-9.82-1.24,38.06,38.06,0,0,0-7.58.75c-.49-2.19-.92-4.46-1.27-6.76a46.35,46.35,0,0,1,8.55-.8m0-1a47.38,47.38,0,0,0-9.68,1c.43,2.94,1,5.86,1.65,8.73a37.18,37.18,0,0,1,8.33-.93,37.39,37.39,0,0,1,9.57,1.21c3.65,1,3.05,1.47,15.68,8,8,4.14,12.12,6.24,16.07,7.54A53.73,53.73,0,0,0,69,150.86h1a43.17,43.17,0,0,0,15.72-2.91,45.06,45.06,0,0,0,10.72-6v-9.34a3,3,0,0,0-.58-.06h-.24a2.91,2.91,0,0,0-1.13.34,42.81,42.81,0,0,1-24.2,8.85c-.43,0-1,0-1.69,0a44.07,44.07,0,0,1-6.47-.48,47.87,47.87,0,0,1-7.7-1.88,58.52,58.52,0,0,1-15.69-7.83A51,51,0,0,0,23,124.15a47.43,47.43,0,0,0-12.2-1.61Z"/><path d="M69,171.1A53.47,53.47,0,0,1,58.54,170c-2-.49-4-1-6-1.66l-.21-.07a62.5,62.5,0,0,1-8.55-3.2,48.65,48.65,0,0,1-5.3-3l-1.6-1c-7.62-4.63-11.45-6.95-16.1-8.3a32.71,32.71,0,0,0-9.14-1.27c-.6,0-1.22,0-1.86.05C8.64,149.06,7.6,146.49,6.7,144c1.37-.13,2.75-.19,4.12-.19.66,0,1.32,0,2,0a49.34,49.34,0,0,1,10,1.56,51.71,51.71,0,0,1,8.61,2.74A48.37,48.37,0,0,1,40.3,153a43.65,43.65,0,0,0,14,7.56,40.8,40.8,0,0,0,6,1.45,38.83,38.83,0,0,0,8.88,1h0c.37,0,.75,0,1.13,0a40.15,40.15,0,0,0,24.05-9,3.6,3.6,0,0,1,1.29-.28H96v8.63a44.89,44.89,0,0,1-10.4,5.81A42.58,42.58,0,0,1,70,171.09H69Z"/><path d="M10.82,144.28c.66,0,1.33,0,2,0a49.48,49.48,0,0,1,9.93,1.54,51.22,51.22,0,0,1,8.53,2.72A47.72,47.72,0,0,1,40,153.43a44.23,44.23,0,0,0,14.18,7.65,43.13,43.13,0,0,0,6.06,1.46,40,40,0,0,0,9,1c.37,0,.76,0,1.15,0a40.52,40.52,0,0,0,24.28-9.06,3.23,3.23,0,0,1,.84-.21v7.87a44.44,44.44,0,0,1-10.08,5.59A41.94,41.94,0,0,1,70,170.59H69a51.84,51.84,0,0,1-10.3-1.08c-2-.48-4-1-6-1.65l-.22-.07A61.23,61.23,0,0,1,44,164.63a48.51,48.51,0,0,1-5.24-2.94l-1.61-1c-7.66-4.66-11.5-7-16.22-8.36a33,33,0,0,0-9.28-1.29l-1.54,0c-1-2.23-1.9-4.47-2.71-6.68,1.14-.09,2.29-.13,3.43-.13m0-1a47.42,47.42,0,0,0-4.8.25c1,2.93,2.18,5.8,3.45,8.6.75,0,1.47-.07,2.17-.07a31.84,31.84,0,0,1,9,1.25c4.58,1.33,8.38,3.64,16,8.25a69,69,0,0,0,6.94,4,63,63,0,0,0,8.84,3.29c2.44.77,4.52,1.31,6,1.68A53.11,53.11,0,0,0,69,171.6h1.08a43,43,0,0,0,15.72-2.92,45.06,45.06,0,0,0,10.72-6v-9.33a4.14,4.14,0,0,0-.66-.06h-.16a4.16,4.16,0,0,0-1.53.35,39.57,39.57,0,0,1-23.8,8.93c-.38,0-.76,0-1.12,0a38.81,38.81,0,0,1-8.8-1,42.27,42.27,0,0,1-5.94-1.43,43.48,43.48,0,0,1-13.89-7.5,48.68,48.68,0,0,0-8.93-5A52.23,52.23,0,0,0,23,144.89a49.53,49.53,0,0,0-10.13-1.56c-.69,0-1.37-.05-2-.05Z"/><path d="M68.88,194.13a52.81,52.81,0,0,1-16.45-2.75c-3.84-1.27-7.68-3.22-16-7.51-4.13-2.12-6.75-3.55-8.37-4.46a104.9,104.9,0,0,1-9.39-11.89c1.32.22,2.68.52,4.05.88a50.35,50.35,0,0,1,15.65,7.34,59.15,59.15,0,0,0,15.82,7.89,54.73,54.73,0,0,0,16.08,2.64h.15a37.12,37.12,0,0,0,13.16-2.94,40.86,40.86,0,0,0,10.86-6.49l.14-.12,0-.17a.74.74,0,0,1,.58-.6h0a.79.79,0,0,1,.77.51v8.88a44.56,44.56,0,0,1-10.53,5.91,42.7,42.7,0,0,1-15.55,2.87Z"/><path d="M19.78,168.23q1.39.27,2.82.66a49.85,49.85,0,0,1,15.49,7.25,59.28,59.28,0,0,0,15.95,8,55.42,55.42,0,0,0,16.23,2.66h.16a37.69,37.69,0,0,0,13.35-3,41.61,41.61,0,0,0,11-6.58l.28-.22.07-.35a.24.24,0,0,1,.18-.2.22.22,0,0,1,.19.12v8.52a43.86,43.86,0,0,1-10.21,5.69,42,42,0,0,1-15.38,2.84l-1,0a52.4,52.4,0,0,1-16.29-2.74c-3.81-1.25-7.63-3.19-15.92-7.47-4.06-2.09-6.66-3.51-8.29-4.41a105.13,105.13,0,0,1-8.6-10.79m-2.15-1.38a106.86,106.86,0,0,0,10.12,13c1.9,1.05,4.55,2.49,8.46,4.51,8,4.14,12.12,6.23,16.07,7.53a53.47,53.47,0,0,0,16.6,2.79l1,0a43.11,43.11,0,0,0,15.72-2.91,44.83,44.83,0,0,0,10.85-6.12v-9.21a1.26,1.26,0,0,0-1.19-.93h-.17a1.22,1.22,0,0,0-1,1,40.83,40.83,0,0,1-10.74,6.42,37.58,37.58,0,0,1-13,2.9h-.15a54.49,54.49,0,0,1-15.93-2.61,59.13,59.13,0,0,1-15.69-7.83,50.8,50.8,0,0,0-15.8-7.41,44.6,44.6,0,0,0-5.23-1.07Z"/><path d="M68.58,108.5a54.28,54.28,0,0,1-16.52-2.75c-3.84-1.27-7.68-3.22-16-7.51-2.13-1.09-3.32-1.77-4.27-2.31-1.12-.63-1.93-1.09-3.55-1.84-4.13-1.89-8.41-3.85-14.07-4.59a35,35,0,0,0-4.59-.3A37.89,37.89,0,0,0,2.07,90c.24-1.34.5-2.68.77-4,.4-1.9.85-3.8,1.33-5.67,1.26-.08,2.53-.13,3.79-.13,1.63,0,3.28.08,4.9.21a55.63,55.63,0,0,1,10,1.76c3.76,1.06,5.9,2.22,11.62,5.31l1.76,1c10.19,5.5,14.82,8,17.85,9A41.74,41.74,0,0,0,67.91,100h0l1,0a33.52,33.52,0,0,0,13.71-2.88c5.07-2.38,7.61-3.57,9-4.64a10,10,0,0,1,3.65-1.84c.3-.07.59-.13.9-.18l-.15,9a44.51,44.51,0,0,1-10.91,6.2A42.79,42.79,0,0,1,79,107.48a45.74,45.74,0,0,1-9.94,1Z"/><path d="M8,80.67c1.61,0,3.25.07,4.86.21a56,56,0,0,1,9.89,1.74c3.71,1,5.84,2.2,11.52,5.27l1.76,1c10.22,5.51,14.87,8,17.93,9a42.23,42.23,0,0,0,14,2.59l1,0A33.89,33.89,0,0,0,82.84,97.5C88,95.11,90.51,93.9,92,92.78a9.23,9.23,0,0,1,3.42-1.72l.27-.07-.14,8.18a44.09,44.09,0,0,1-10.59,6,40.59,40.59,0,0,1-6,1.84,45.4,45.4,0,0,1-9.83,1h-.48a53.72,53.72,0,0,1-16.38-2.73c-3.8-1.25-7.62-3.19-15.91-7.47C34.19,96.71,33,96,32.06,95.5a37.08,37.08,0,0,0-3.59-1.86C24.3,91.73,20,89.75,14.25,89a36,36,0,0,0-4.65-.3,38.72,38.72,0,0,0-6.91.64c.2-1.09.42-2.19.64-3.27.37-1.77.79-3.54,1.23-5.29,1.13-.07,2.27-.11,3.4-.11m0-1c-1.56,0-3,.07-4.19.16q-.75,2.88-1.42,6c-.34,1.63-.64,3.22-.9,4.76A37.24,37.24,0,0,1,9.6,89.7a35,35,0,0,1,4.52.29c5.59.73,9.82,2.67,13.93,4.56,3,1.36,3.18,1.76,7.8,4.14,8,4.14,12.11,6.23,16,7.53A54.58,54.58,0,0,0,68.58,109h.49A45.53,45.53,0,0,0,79.12,108a40.92,40.92,0,0,0,6.16-1.88,44.65,44.65,0,0,0,11.21-6.41c.06-3.28.11-6.56.17-9.84a8.64,8.64,0,0,0-1.53.26A10.26,10.26,0,0,0,91.3,92c-1.32,1-3.84,2.21-8.88,4.58A33,33,0,0,1,68.9,99.43l-1,0a41.09,41.09,0,0,1-13.67-2.54c-3.05-1-8-3.67-17.78-9-7.08-3.82-9.29-5.12-13.48-6.3A55.52,55.52,0,0,0,12.9,79.89c-1.77-.16-3.43-.22-4.94-.22Z"/><path d="M10.58,111.23a36.07,36.07,0,0,1,9.31,1.19,17.82,17.82,0,0,1,5.11,2.3c2,1.11,4.93,2.79,10.39,5.61,7.81,4,12.11,6.23,16.2,7.58a54.44,54.44,0,0,0,16.92,2.83h1.06a43.88,43.88,0,0,0,16.07-3,45.75,45.75,0,0,0,9.85-5.34v9.12a3.93,3.93,0,0,0-1.37.44l-.06,0-.06,0a45.48,45.48,0,0,1-4.52,3,46.54,46.54,0,0,1-6.32,3.1A38.55,38.55,0,0,1,70.52,141h-.09a53.59,53.59,0,0,1-15.65-2.57,57.83,57.83,0,0,1-15.42-7.7,51.33,51.33,0,0,0-16.13-7.54,48.31,48.31,0,0,0-21.29-.83c-.43-3.24-.72-6.55-.85-9.87a35.56,35.56,0,0,1,9.49-1.26m0-1A36.7,36.7,0,0,0,.06,111.74a106.84,106.84,0,0,0,1,11.81,46.76,46.76,0,0,1,9.68-1,47.39,47.39,0,0,1,12.2,1.6,51,51,0,0,1,15.81,7.4,58.52,58.52,0,0,0,15.69,7.83A54.45,54.45,0,0,0,70.41,142h.11a39.11,39.11,0,0,0,13-2.91A47,47,0,0,0,90,135.93a49,49,0,0,0,4.62-3.08,2.87,2.87,0,0,1,1.07-.33h.25a2.84,2.84,0,0,1,.57.06V120.42a45,45,0,0,1-11.21,6.4,43.25,43.25,0,0,1-15.73,2.91h-1A53.46,53.46,0,0,1,51.9,127c-3.94-1.3-8-3.39-16-7.52-12.65-6.53-12-7-15.7-8a36.37,36.37,0,0,0-9.57-1.23Z"/><path d="M11.08,132.35a36.62,36.62,0,0,1,9.3,1.17,17.74,17.74,0,0,1,5.08,2.3c2,1.11,4.93,2.79,10.41,5.61,7.82,4,12.13,6.25,16.21,7.6A54.53,54.53,0,0,0,69,151.86h1.06a44.35,44.35,0,0,0,16.07-3,46.09,46.09,0,0,0,9.35-5v8.41a4,4,0,0,0-1.6.54l0,0,0,0a43.83,43.83,0,0,1-4.33,2.93,45,45,0,0,1-6.31,3.1,38.57,38.57,0,0,1-12.64,2.83h-.09a53.47,53.47,0,0,1-15.65-2.57,57.42,57.42,0,0,1-15.42-7.71,52.05,52.05,0,0,0-16.13-7.54,47.85,47.85,0,0,0-12.41-1.64c-1.37,0-2.75.06-4.12.18-1-3-2-6.2-2.75-9.41a35.84,35.84,0,0,1,7.13-.7m0-1a37.18,37.18,0,0,0-8.33.93A101,101,0,0,0,6,143.53a47.42,47.42,0,0,1,4.8-.25A46.77,46.77,0,0,1,23,144.89a51.22,51.22,0,0,1,15.81,7.39,58.5,58.5,0,0,0,15.69,7.85,54.39,54.39,0,0,0,15.93,2.61h.11a39,39,0,0,0,13-2.9A46.14,46.14,0,0,0,90,156.67a44.35,44.35,0,0,0,4.42-3,3,3,0,0,1,1.27-.41h.24a2.4,2.4,0,0,1,.58.06V141.91a45.06,45.06,0,0,1-10.72,6,43.17,43.17,0,0,1-15.72,2.91H69a53.73,53.73,0,0,1-16.61-2.78c-3.95-1.3-8-3.4-16.07-7.54-12.63-6.51-12-7-15.68-8a37.39,37.39,0,0,0-9.57-1.21Z"/><path d="M11.09,153.09a36.06,36.06,0,0,1,9.29,1.18c.11,0,1,.28,1.83.59,5.75,2.09,13.25,7,13.57,7.26h0l.11.08,0,0h0a65.07,65.07,0,0,0,16.15,7.55,54.78,54.78,0,0,0,17,2.83h1a43.88,43.88,0,0,0,16.07-3,46.13,46.13,0,0,0,9.35-5v10.7a4.38,4.38,0,0,0-1.5.39l-.1.05-.09.07a42,42,0,0,1-4.45,3,44.35,44.35,0,0,1-6.31,3.1,38.5,38.5,0,0,1-12.6,2.83H70.3a53.44,53.44,0,0,1-15.64-2.56,57.77,57.77,0,0,1-15.43-7.71A51.55,51.55,0,0,0,23.11,167a49,49,0,0,0-4.88-1A104.24,104.24,0,0,1,11,153.09h.07m0-1c-.52,0-1.07,0-1.62,0a106.89,106.89,0,0,0,8.16,14.71h0a44.6,44.6,0,0,1,5.23,1.07,50.8,50.8,0,0,1,15.8,7.41,59.13,59.13,0,0,0,15.69,7.83,54.49,54.49,0,0,0,15.93,2.61h.16a38.82,38.82,0,0,0,13-2.9,45.52,45.52,0,0,0,6.46-3.17,44.78,44.78,0,0,0,4.56-3.1,3.17,3.17,0,0,1,1.18-.3h.17a2.82,2.82,0,0,1,.72.09V162.65a45.06,45.06,0,0,1-10.72,6,43,43,0,0,1-15.72,2.92H69a53.73,53.73,0,0,1-16.64-2.78,63.83,63.83,0,0,1-16.07-7.53s-7.8-5.2-13.78-7.37c-.94-.34-1.9-.61-1.9-.61a36.66,36.66,0,0,0-9.56-1.22Z"/><path d="M85.69,211.89A104.76,104.76,0,0,1,68,206.8c.72,0,1.5,0,2.33-.07a37,37,0,0,0,11.06-2,82.2,82.2,0,0,0,8-4c2.21-1.18,4-2.17,5.25-2.86a2.4,2.4,0,0,1,1-.32H96v8.55A44.5,44.5,0,0,1,85.69,211.89Z"/><path d="M95.49,198.07v7.77a44.1,44.1,0,0,1-9.84,5.53,103.88,103.88,0,0,1-15.05-4.15,36.86,36.86,0,0,0,11-2,85.83,85.83,0,0,0,8.06-4c1.76-.93,3.53-1.9,5.28-2.87a1.76,1.76,0,0,1,.56-.22m.34-1H95.6a2.68,2.68,0,0,0-1.18.39c-1.23.68-3,1.68-5.24,2.85a83,83,0,0,1-7.94,4,35.94,35.94,0,0,1-10.9,2c-.87.05-1.68.07-2.42.07-1,0-1.93,0-2.68-.08a105.23,105.23,0,0,0,20.5,6.19,45.06,45.06,0,0,0,10.75-6.07v-9.23a2.83,2.83,0,0,0-.66-.08Z"/><path d="M33,183.78l2.75,1.43C44.14,189.53,48,191.5,52,192.8a54.51,54.51,0,0,0,16.92,2.84l1.06,0a44,44,0,0,0,16.07-3,45.38,45.38,0,0,0,9.48-5.1v8.5a4,4,0,0,0-1.76.59l0,0,0,0a44.83,44.83,0,0,1-4.3,2.89,43.88,43.88,0,0,1-6.31,3.1,38.59,38.59,0,0,1-12.65,2.84h-.1c-1.53,0-3.15-.11-4.8-.28A105.74,105.74,0,0,1,33,183.78m-5.25-4a106.21,106.21,0,0,0,37.47,26.4h0a50,50,0,0,0,5,.3h.11a39.06,39.06,0,0,0,13-2.91,45.65,45.65,0,0,0,6.46-3.17,43.71,43.71,0,0,0,4.4-2.95A3,3,0,0,1,95.6,197h.22a3,3,0,0,1,.67.07V185.59a44.83,44.83,0,0,1-10.85,6.12,43.11,43.11,0,0,1-15.72,2.91l-1,0a53.47,53.47,0,0,1-16.6-2.79c-4-1.3-8-3.39-16.07-7.53-3.91-2-6.56-3.46-8.46-4.51Z"/><path d="M95.49,208.3v4.53c-2.12-.21-4.24-.49-6.33-.83a45.26,45.26,0,0,0,6.33-3.7m1-2a45.06,45.06,0,0,1-10.75,6.07,105.33,105.33,0,0,0,10.75,1.52v-7.59Z"/><path class="cls-5" d="M96.49,99.67v11.9a3.13,3.13,0,0,0-1.07-.16,3,3,0,0,0-1.31.35,51.21,51.21,0,0,1-4.61,3A48.81,48.81,0,0,1,83,118a38.84,38.84,0,0,1-13.12,2.91A54.51,54.51,0,0,1,54,118.27a58.43,58.43,0,0,1-15.68-7.84A50.62,50.62,0,0,0,22.48,103a47.13,47.13,0,0,0-22.33-.51,105.8,105.8,0,0,1,1.3-11.91,37.9,37.9,0,0,1,18.7.09c3.66,1,3.05,1.47,15.7,8,8,4.14,12.11,6.23,16,7.53A53,53,0,0,0,69.55,109a43,43,0,0,0,15.73-2.91A44.65,44.65,0,0,0,96.49,99.67Z"/><path class="cls-5" d="M96.49,120.42v12.15a2.84,2.84,0,0,0-.82,0,2.87,2.87,0,0,0-1.07.33A49,49,0,0,1,90,135.93a47,47,0,0,1-6.46,3.16A38.71,38.71,0,0,1,70.41,142a54.45,54.45,0,0,1-15.93-2.62,58.52,58.52,0,0,1-15.69-7.83A51,51,0,0,0,23,124.15a47.11,47.11,0,0,0-21.88-.6,106.84,106.84,0,0,1-1-11.81,37.61,37.61,0,0,1,20.09-.28c3.66,1,3.05,1.45,15.7,8,8,4.13,12.11,6.22,16,7.52a52.75,52.75,0,0,0,17.65,2.77,43.25,43.25,0,0,0,15.73-2.91A45,45,0,0,0,96.49,120.42Z"/><path class="cls-5" d="M96.49,141.91v11.41a2.57,2.57,0,0,0-.82,0,3,3,0,0,0-1.27.41,44.35,44.35,0,0,1-4.42,3,46.14,46.14,0,0,1-6.46,3.17,38.6,38.6,0,0,1-13.11,2.9,54.39,54.39,0,0,1-15.93-2.61,58.5,58.5,0,0,1-15.69-7.85A51.22,51.22,0,0,0,23,144.89a46.63,46.63,0,0,0-17-1.36,101,101,0,0,1-3.27-11.25,38.08,38.08,0,0,1,17.89.28c3.66,1,3.06,1.47,15.69,8,8,4.14,12.12,6.24,16.07,7.54a53,53,0,0,0,17.65,2.77,43.17,43.17,0,0,0,15.72-2.91A45.06,45.06,0,0,0,96.49,141.91Z"/><path class="cls-5" d="M96.49,162.65v13.73a3.21,3.21,0,0,0-.89-.08,3.17,3.17,0,0,0-1.18.3,44.78,44.78,0,0,1-4.56,3.1,45.52,45.52,0,0,1-6.46,3.17,38.34,38.34,0,0,1-13.12,2.9,54.49,54.49,0,0,1-15.93-2.61,59.13,59.13,0,0,1-15.69-7.83,50.8,50.8,0,0,0-15.8-7.41,44.6,44.6,0,0,0-5.23-1.07h0a106.89,106.89,0,0,1-8.16-14.71,37.15,37.15,0,0,1,11.17,1.18c3.66,1,3.06,1.46,15.69,8,8,4.14,12.12,6.23,16.07,7.53a53,53,0,0,0,17.65,2.77,43,43,0,0,0,15.72-2.92A45.06,45.06,0,0,0,96.49,162.65Z"/><path class="cls-5" d="M96.49,185.59v11.52a3.26,3.26,0,0,0-.89-.07,3,3,0,0,0-1.34.45,43.71,43.71,0,0,1-4.4,2.95,45.65,45.65,0,0,1-6.46,3.17,38.7,38.7,0,0,1-13.12,2.91,50,50,0,0,1-5-.3h0a106.21,106.21,0,0,1-37.47-26.4c1.9,1.05,4.55,2.49,8.46,4.51,8,4.14,12.12,6.23,16.07,7.53a52.62,52.62,0,0,0,17.64,2.77,43.11,43.11,0,0,0,15.72-2.91A44.83,44.83,0,0,0,96.49,185.59Z"/><path class="cls-5" d="M85.74,212.41a45.06,45.06,0,0,0,10.75-6.07v7.59A105.33,105.33,0,0,1,85.74,212.41Z"/><path class="cls-6" d="M96.18.55V89.76a2.78,2.78,0,0,0-.75-.08,3.42,3.42,0,0,0-2.06.76A43.41,43.41,0,0,1,83,96.25a40.07,40.07,0,0,1-13.12,2.9A54.45,54.45,0,0,1,54,96.54,58.89,58.89,0,0,1,38.3,88.71,50.83,50.83,0,0,0,22.48,81.3,47,47,0,0,0,4.23,80.09,106.2,106.2,0,0,1,96.18.55Z"/><polygon points="53.15 33.79 46.82 31.2 41.1 34.94 41.61 28.12 36.28 23.83 42.92 22.21 45.35 15.81 48.95 21.63 55.77 21.97 51.35 27.19 53.15 33.79"/><polygon points="77.43 58.33 71.4 51.44 62.31 52.5 66.99 44.63 63.16 36.31 72.09 38.33 78.82 32.12 79.65 41.24 87.63 45.73 79.22 49.34 77.43 58.33"/><polygon points="60.09 86.96 49.05 84.39 40.68 92.04 39.71 80.73 29.86 75.13 40.3 70.71 42.58 59.6 50 68.17 61.26 66.91 55.41 76.63 60.09 86.96"/><path class="cls-7" d="M94.45,176.46h-.31"/></g></g></svg>